PathFileType	4	(X/Y/Z)	 Jog05.trc
DataRate	CameraRate	NumFrames	NumMarkers	Units	OrigDataRate	OrigDataStartFrame	OrigNumFrames
250	250	11	31	m	250	1	651
Frame#	Time	RASI			LASI			RAIC			LAIC			RTH2			RTB3			RMT1			RMT5			LTH1			LTH2			LTH3			LCAL			LMT1			LMT5			CLAV			STRN			RACR			LACR			RTH1			RTH3			LTB1			LTB2			C7			LPSI			T10			RPSI			LTB3			RTB1			RCAL			RTB2			C_30			
		X1	Y1	Z1	X2	Y2	Z2	X3	Y3	Z3	X4	Y4	Z4	X5	Y5	Z5	X6	Y6	Z6	X7	Y7	Z7	X8	Y8	Z8	X9	Y9	Z9	X10	Y10	Z10	X11	Y11	Z11	X12	Y12	Z12	X13	Y13	Z13	X14	Y14	Z14	X15	Y15	Z15	X16	Y16	Z16	X17	Y17	Z17	X18	Y18	Z18	X19	Y19	Z19	X20	Y20	Z20	X21	Y21	Z21	X22	Y22	Z22	X23	Y23	Z23	X24	Y24	Z24	X25	Y25	Z25	X26	Y26	Z26	X27	Y27	Z27	X28	Y28	Z28	X29	Y29	Z29	X30	Y30	Z30	X31	Y31	Z31	
1	0.0040	-4.305685	0.956083	0.485317	-4.312086	0.986955	0.260574	-4.341365	1.062966	0.530426	-4.367852	1.091243	0.228261	-4.424585	0.747634	0.526711	-4.753374	0.304643	0.415880	-4.854338	0.077973	0.385484	-4.866861	0.068625	0.478622	-4.327638	0.903513	0.196164	-4.237910	0.858599	0.220012	-4.228379	0.754262	0.206263	-4.362727	0.170482	0.343072	-4.147796	0.132484	0.356913	-4.162900	0.126740	0.268373	-4.290814	1.437635	0.380399	-4.246163	1.225094	0.364285	-4.317226	1.474264	0.562909	-4.376272	1.480895	0.224163	-4.432451	0.847379	0.554605	-4.507319	0.688415	0.526141	-4.145198	0.464230	0.327849	-4.167208	0.393934	0.280179	-4.399021	1.516687	0.399729	-4.472962	1.071220	0.356244	-4.461670	1.230139	0.414884	-4.468936	1.061351	0.427836	-4.200727	0.339958	0.336172	-4.657444	0.403782	0.407608	-4.945112	0.264423	0.423950	0.000000	0.000000	0.000000	-4.597048	0.527911	0.368424	
2	0.0080	-4.288710	0.957583	0.484311	-4.296092	0.989228	0.260214	-4.322828	1.064725	0.529917	-4.351977	1.094058	0.228240	-4.410038	0.749853	0.527192	-4.743202	0.309762	0.417398	-4.850565	0.084355	0.386026	-4.863503	0.074835	0.478920	-4.311361	0.905804	0.195477	-4.222219	0.860001	0.219758	-4.214452	0.755235	0.208265	-4.330561	0.159843	0.344749	-4.114120	0.132347	0.359290	-4.128769	0.125187	0.270747	-4.274932	1.439715	0.379455	-4.229767	1.228026	0.363179	-4.300907	1.476504	0.561922	-4.361491	1.482649	0.224141	-4.416718	0.849823	0.554963	-4.493560	0.691724	0.526467	-4.127292	0.463461	0.329656	-4.146021	0.392307	0.281542	-4.383455	1.518039	0.399519	-4.455707	1.074150	0.357193	-4.444934	1.231300	0.415502	-4.451386	1.064112	0.428757	-4.177132	0.336887	0.338166	-4.646361	0.407679	0.408499	-4.933505	0.274101	0.426561	0.000000	0.000000	0.000000	-4.584652	0.530636	0.369085	
3	0.0120	-4.271845	0.958740	0.483360	-4.279922	0.991029	0.259771	-4.304399	1.066203	0.529419	-4.336192	1.096412	0.228307	-4.395568	0.752146	0.527833	-4.733532	0.315300	0.418503	-4.846010	0.091614	0.386516	-4.859554	0.081306	0.479541	-4.295154	0.907671	0.194881	-4.206652	0.860988	0.219492	-4.200638	0.755846	0.210538	-4.298347	0.149772	0.346588	-4.080370	0.132934	0.361246	-4.094936	0.124077	0.272936	-4.259407	1.441663	0.378781	-4.213313	1.230577	0.362083	-4.284619	1.478568	0.561052	-4.346619	1.484184	0.224077	-4.400792	0.852032	0.555198	-4.479478	0.694844	0.526604	-4.109585	0.462446	0.331232	-4.124273	0.390584	0.282824	-4.367818	1.519273	0.399334	-4.438591	1.076838	0.358101	-4.428233	1.232318	0.416037	-4.433965	1.066656	0.429615	-4.153027	0.333396	0.339280	-4.635064	0.411476	0.409227	-4.922154	0.283419	0.429289	0.000000	0.000000	0.000000	-4.571759	0.533031	0.369695	
4	0.0160	-4.255455	0.960087	0.482569	-4.263642	0.992699	0.259467	-4.286399	1.067565	0.529083	-4.320269	1.098333	0.228272	-4.380525	0.754158	0.528160	-4.723675	0.320565	0.419744	-4.840768	0.099426	0.387181	-4.854153	0.088703	0.479752	-4.279023	0.909040	0.194371	-4.191176	0.861554	0.219279	-4.187021	0.756106	0.212857	-4.266064	0.140287	0.348472	-4.047641	0.134060	0.363217	-4.061763	0.123796	0.274816	-4.243638	1.443472	0.377881	-4.196860	1.232999	0.360891	-4.268317	1.480405	0.560214	-4.331746	1.485570	0.223955	-4.384979	0.854144	0.555513	-4.465056	0.697770	0.526676	-4.091820	0.461047	0.332336	-4.103771	0.388372	0.284329	-4.352159	1.520378	0.399127	-4.421611	1.079292	0.358952	-4.411528	1.233206	0.416534	-4.416681	1.068980	0.430434	-4.129427	0.330138	0.340673	-4.623663	0.415047	0.409760	-4.911284	0.292450	0.431950	0.000000	0.000000	0.000000	-4.558497	0.535293	0.370163	
5	0.0200	-4.238934	0.961236	0.481887	-4.247563	0.994023	0.259301	-4.268499	1.068679	0.528616	-4.304433	1.099768	0.228202	-4.364975	0.755862	0.528054	-4.712833	0.325145	0.421301	-4.834940	0.107709	0.387912	-4.848592	0.096505	0.480377	-4.263175	0.910049	0.193822	-4.176235	0.861613	0.218332	-4.173764	0.756049	0.214874	-4.233811	0.131366	0.350461	-4.015489	0.135692	0.364990	-4.029035	0.124108	0.276633	-4.228013	1.445194	0.377058	-4.180318	1.235161	0.359784	-4.251943	1.482043	0.559442	-4.317332	1.487094	0.223547	-4.369187	0.856081	0.555923	-4.450318	0.700318	0.526607	-4.074261	0.459470	0.333321	-4.083183	0.386309	0.285347	-4.336474	1.521370	0.398876	-4.404737	1.081454	0.359781	-4.394921	1.234024	0.416926	-4.399640	1.071069	0.431249	-4.105953	0.327011	0.341804	-4.612002	0.418543	0.410227	-4.901521	0.302136	0.434399	0.000000	0.000000	0.000000	-4.544746	0.537346	0.370462	
6	0.0240	-4.222542	0.962218	0.481439	-4.231643	0.995237	0.259205	-4.251058	1.069742	0.528304	-4.288595	1.100671	0.228172	-4.349698	0.757668	0.528355	-4.702516	0.330606	0.422446	-4.828587	0.116243	0.388655	-4.842090	0.104126	0.481040	-4.247536	0.910647	0.193364	-4.160785	0.861160	0.218720	-4.160598	0.755542	0.216437	-4.201781	0.123094	0.352400	-3.983544	0.137393	0.366315	-3.996907	0.125078	0.278264	-4.212088	1.446552	0.376178	-4.163973	1.236966	0.358715	-4.235600	1.483469	0.558740	-4.301854	1.487869	0.223549	-4.353252	0.857638	0.556124	-4.435137	0.702456	0.526379	-4.056666	0.457669	0.333846	-4.062844	0.384200	0.286305	-4.320683	1.522257	0.398631	-4.388059	1.083303	0.360506	-4.378376	1.234746	0.417261	-4.382826	1.072891	0.432027	-4.082697	0.323944	0.342947	-4.599967	0.422063	0.410574	-4.891764	0.311407	0.437191	0.000000	0.000000	0.000000	-4.530317	0.539063	0.370876	
7	0.0280	-4.206561	0.963364	0.481069	-4.215652	0.996020	0.259110	-4.233940	1.070722	0.527921	-4.272766	1.101124	0.228219	-4.334004	0.759138	0.528369	-4.692625	0.336736	0.423336	-4.821803	0.124994	0.389428	-4.834754	0.112269	0.482106	-4.232500	0.910559	0.192572	-4.146592	0.860107	0.217527	-4.147501	0.754526	0.217396	-4.169883	0.115406	0.354344	-3.952769	0.140137	0.367839	-3.965818	0.126778	0.279541	-4.196269	1.447820	0.375626	-4.147694	1.238427	0.357854	-4.219285	1.484735	0.558132	-4.287616	1.489159	0.222849	-4.337447	0.859131	0.556391	-4.419706	0.704282	0.526314	-4.039418	0.455869	0.334567	-4.043114	0.382118	0.286934	-4.304912	1.523057	0.398364	-4.371661	1.084866	0.361155	-4.361902	1.235403	0.417549	-4.366242	1.074437	0.432712	-4.059704	0.321131	0.343869	-4.587732	0.425376	0.410928	-4.882011	0.320312	0.440144	0.000000	0.000000	0.000000	-4.515666	0.540921	0.370830	
8	0.0320	-4.190342	0.964288	0.480960	-4.199708	0.996660	0.259129	-4.217092	1.071616	0.527536	-4.256797	1.101251	0.228068	-4.318295	0.760536	0.528470	-4.680955	0.343200	0.424052	-4.814865	0.133870	0.390255	-4.826855	0.120875	0.482866	-4.216485	0.910165	0.193111	-4.131657	0.858371	0.217714	-4.134741	0.753015	0.217497	-4.138352	0.108411	0.356192	-3.922443	0.142866	0.368868	-3.935219	0.128780	0.280818	-4.180489	1.449177	0.374628	-4.131211	1.239806	0.356855	-4.202801	1.485826	0.557510	-4.272579	1.489935	0.222498	-4.321784	0.860362	0.556610	-4.403742	0.705481	0.526025	-4.022248	0.454032	0.334927	-4.023732	0.380059	0.287376	-4.289030	1.523744	0.398057	-4.355430	1.086078	0.361667	-4.345521	1.235981	0.417733	-4.349864	1.075663	0.433273	-4.037188	0.318620	0.344805	-4.575260	0.428836	0.411050	-4.872610	0.329574	0.443002	0.000000	0.000000	0.000000	-4.500282	0.542502	0.370946	
9	0.0360	-4.174413	0.965230	0.480965	-4.183524	0.997079	0.259207	-4.200425	1.072448	0.527165	-4.240879	1.101062	0.227988	-4.302046	0.761453	0.528113	-4.669881	0.349012	0.424891	-4.807649	0.142871	0.391161	-4.817982	0.129603	0.484109	-4.201247	0.909240	0.193022	-4.116809	0.855811	0.218695	-4.122008	0.750719	0.217478	-4.107185	0.102025	0.357888	-3.893287	0.146432	0.369986	-3.905484	0.131204	0.281947	-4.164649	1.450133	0.373831	-4.114926	1.240824	0.355902	-4.186326	1.486689	0.556923	-4.257391	1.490497	0.222110	-4.305914	0.861221	0.556678	-4.387511	0.706384	0.525852	-4.004833	0.451955	0.334838	-4.004830	0.378009	0.287717	-4.273099	1.524350	0.397734	-4.339373	1.086908	0.362046	-4.329311	1.236511	0.417858	-4.333730	1.076652	0.433711	-4.015166	0.316321	0.345853	-4.562276	0.432122	0.411175	-4.862744	0.338610	0.446139	0.000000	0.000000	0.000000	-4.484512	0.544086	0.370742	
10	0.0400	-4.158344	0.966180	0.481149	-4.167490	0.997258	0.259265	-4.184079	1.073262	0.526783	-4.224917	1.100715	0.228000	-4.285720	0.762262	0.527793	-4.658652	0.354845	0.425716	-4.799993	0.151854	0.392314	-4.808566	0.137944	0.485096	-4.185976	0.907722	0.193377	-4.102598	0.852636	0.219055	-4.109542	0.747746	0.217130	-4.076865	0.096587	0.359575	-3.865051	0.150712	0.370937	-3.876808	0.134074	0.282828	-4.148646	1.450971	0.372965	-4.098684	1.241500	0.354949	-4.169830	1.487396	0.556370	-4.241147	1.490587	0.222148	-4.290071	0.861882	0.556691	-4.370773	0.706653	0.525467	-3.988057	0.450201	0.335118	-3.986281	0.376060	0.288141	-4.257076	1.524855	0.397367	-4.323459	1.087353	0.362262	-4.313222	1.236980	0.417857	-4.317780	1.077336	0.433981	-3.993055	0.314191	0.346204	-4.548977	0.435250	0.411276	-4.852865	0.347965	0.448955	0.000000	0.000000	0.000000	-4.468197	0.545587	0.370438	
11	0.0440	-4.142270	0.966968	0.481409	-4.151449	0.997049	0.259584	-4.168029	1.074044	0.526459	-4.208939	1.100076	0.227972	-4.269139	0.762717	0.527320	-4.646850	0.360564	0.426439	-4.791962	0.160844	0.393684	-4.799243	0.147065	0.486669	-4.171133	0.905528	0.193609	-4.088377	0.848849	0.219760	-4.097477	0.744279	0.216440	-4.047006	0.091746	0.361490	-3.838010	0.154780	0.371631	-3.849249	0.137235	0.283494	-4.132739	1.451469	0.372388	-4.082345	1.241960	0.354041	-4.153259	1.487916	0.555783	-4.225766	1.490895	0.221635	-4.274093	0.862243	0.556633	-4.353802	0.706680	0.525165	-3.971314	0.448487	0.335132	-3.968189	0.374135	0.288528	-4.241032	1.525188	0.396931	-4.307680	1.087427	0.362339	-4.297291	1.237393	0.417830	-4.301996	1.077729	0.434104	-3.971831	0.312403	0.346974	-4.535393	0.438231	0.411280	-4.842264	0.357147	0.451969	0.000000	0.000000	0.000000	-4.451557	0.547052	0.369965	
